<svg width="12" height="12" viewBox="0 0 12 12" fill="none" xmlns="http://www.w3.org/2000/svg">
<path d="M6 0C5.16667 0 4.38542 0.15625 3.65625 0.46875C2.94792 0.78125 2.3125 1.21875 1.75 1.78125C1.20833 2.32292 0.78125 2.95833 0.46875 3.6875C0.15625 4.39583 0 5.16667 0 6C0 6.83333 0.15625 7.61458 0.46875 8.34375C0.78125 9.05208 1.20833 9.6875 1.75 10.25C2.3125 10.7917 2.94792 11.2188 3.65625 11.5312C4.38542 11.8438 5.16667 12 6 12C6.83333 12 7.60417 11.8438 8.3125 11.5312C9.04167 11.2188 9.67708 10.7917 10.2188 10.25C10.7812 9.6875 11.2188 9.05208 11.5312 8.34375C11.8438 7.61458 12 6.83333 12 6C12 5.85417 11.9896 5.70833 11.9688 5.5625C11.9688 5.39583 11.9583 5.23958 11.9375 5.09375C11.6042 5.55208 11.1771 5.91667 10.6562 6.1875C10.1562 6.45833 9.60417 6.59375 9 6.59375C8.33333 6.59375 7.72917 6.4375 7.1875 6.125C6.64583 5.79167 6.20833 5.35417 5.875 4.8125C5.5625 4.27083 5.40625 3.66667 5.40625 3C5.40625 2.39583 5.54167 1.84375 5.8125 1.34375C6.08333 0.822917 6.44792 0.395833 6.90625 0.0625C6.76042 0.0416667 6.60417 0.03125 6.4375 0.03125C6.29167 0.0104167 6.14583 0 6 0Z" fill="#222222"/>
</svg>
