<svg width="16" height="16" viewBox="0 0 16 16" fill="none" xmlns="http://www.w3.org/2000/svg">
<path d="M8 4.65625C7.39583 4.65625 6.83333 4.8125 6.3125 5.125C5.8125 5.41667 5.40625 5.82292 5.09375 6.34375C4.80208 6.84375 4.65625 7.39583 4.65625 8C4.65625 8.60417 4.80208 9.16667 5.09375 9.6875C5.40625 10.1875 5.8125 10.5938 6.3125 10.9062C6.83333 11.1979 7.39583 11.3438 8 11.3438C8.60417 11.3438 9.15625 11.1979 9.65625 10.9062C10.1771 10.5938 10.5833 10.1875 10.875 9.6875C11.1875 9.16667 11.3438 8.60417 11.3438 8C11.3438 7.39583 11.1875 6.84375 10.875 6.34375C10.5833 5.82292 10.1771 5.41667 9.65625 5.125C9.15625 4.8125 8.60417 4.65625 8 4.65625ZM1.34375 8.65625H2.65625C2.84375 8.65625 3 8.59375 3.125 8.46875C3.27083 8.34375 3.34375 8.1875 3.34375 8C3.34375 7.8125 3.27083 7.65625 3.125 7.53125C3 7.40625 2.84375 7.34375 2.65625 7.34375H1.34375C1.15625 7.34375 0.989583 7.40625 0.84375 7.53125C0.71875 7.65625 0.65625 7.8125 0.65625 8C0.65625 8.1875 0.71875 8.34375 0.84375 8.46875C0.989583 8.59375 1.15625 8.65625 1.34375 8.65625ZM13.3438 8.65625H14.6562C14.8438 8.65625 15 8.59375 15.125 8.46875C15.2708 8.34375 15.3438 8.1875 15.3438 8C15.3438 7.8125 15.2708 7.65625 15.125 7.53125C15 7.40625 14.8438 7.34375 14.6562 7.34375H13.3438C13.1562 7.34375 12.9896 7.40625 12.8438 7.53125C12.7188 7.65625 12.6562 7.8125 12.6562 8C12.6562 8.1875 12.7188 8.34375 12.8438 8.46875C12.9896 8.59375 13.1562 8.65625 13.3438 8.65625ZM7.34375 1.34375V2.65625C7.34375 2.84375 7.40625 3.01042 7.53125 3.15625C7.65625 3.28125 7.8125 3.34375 8 3.34375C8.1875 3.34375 8.34375 3.28125 8.46875 3.15625C8.59375 3.01042 8.65625 2.84375 8.65625 2.65625V1.34375C8.65625 1.15625 8.59375 1 8.46875 0.875C8.34375 0.729167 8.1875 0.65625 8 0.65625C7.8125 0.65625 7.65625 0.729167 7.53125 0.875C7.40625 1 7.34375 1.15625 7.34375 1.34375ZM7.34375 13.3438V14.6562C7.34375 14.8438 7.40625 15.0104 7.53125 15.1562C7.65625 15.2812 7.8125 15.3438 8 15.3438C8.1875 15.3438 8.34375 15.2812 8.46875 15.1562C8.59375 15.0104 8.65625 14.8438 8.65625 14.6562V13.3438C8.65625 13.1562 8.59375 13 8.46875 12.875C8.34375 12.7292 8.1875 12.6562 8 12.6562C7.8125 12.6562 7.65625 12.7292 7.53125 12.875C7.40625 13 7.34375 13.1562 7.34375 13.3438ZM4 3.0625C3.875 2.91667 3.71875 2.84375 3.53125 2.84375C3.34375 2.84375 3.1875 2.91667 3.0625 3.0625C2.91667 3.1875 2.84375 3.34375 2.84375 3.53125C2.84375 3.71875 2.91667 3.875 3.0625 4L3.75 4.6875C3.89583 4.83333 4.05208 4.90625 4.21875 4.90625C4.40625 4.90625 4.5625 4.83333 4.6875 4.6875C4.8125 4.5625 4.875 4.40625 4.875 4.21875C4.89583 4.03125 4.83333 3.875 4.6875 3.75L4 3.0625ZM12.25 11.3125C12.1042 11.1667 11.9375 11.0938 11.75 11.0938C11.5833 11.0938 11.4375 11.1667 11.3125 11.3125C11.1667 11.4375 11.0938 11.5938 11.0938 11.7812C11.0938 11.9688 11.1667 12.125 11.3125 12.25L12 12.9375C12.125 13.0833 12.2812 13.1562 12.4688 13.1562C12.6562 13.1562 12.8125 13.0833 12.9375 12.9375C13.0833 12.8125 13.1562 12.6562 13.1562 12.4688C13.1562 12.2812 13.0833 12.125 12.9375 12L12.25 11.3125ZM12.9375 4C13.0833 3.875 13.1562 3.71875 13.1562 3.53125C13.1562 3.34375 13.0833 3.1875 12.9375 3.0625C12.8125 2.91667 12.6562 2.84375 12.4688 2.84375C12.2812 2.84375 12.125 2.91667 12 3.0625L11.3125 3.75C11.1667 3.89583 11.0938 4.0625 11.0938 4.25C11.0938 4.41667 11.1667 4.5625 11.3125 4.6875C11.4375 4.8125 11.5938 4.88542 11.7812 4.90625C11.9688 4.90625 12.125 4.83333 12.25 4.6875L12.9375 4ZM4.6875 12.25C4.83333 12.1042 4.90625 11.9479 4.90625 11.7812C4.90625 11.5938 4.83333 11.4375 4.6875 11.3125C4.5625 11.1667 4.40625 11.0938 4.21875 11.0938C4.03125 11.0938 3.875 11.1667 3.75 11.3125L3.0625 12C2.91667 12.125 2.84375 12.2812 2.84375 12.4688C2.84375 12.6562 2.91667 12.8125 3.0625 12.9375C3.1875 13.0625 3.34375 13.1354 3.53125 13.1562C3.71875 13.1562 3.875 13.0833 4 12.9375L4.6875 12.25Z" fill="#FBB910"/>
</svg>
